STDOUT:


STDERR:
ffmpeg version 7.1.1 Copyright (c) 2000-2025 the FFmpeg developers
  built with Apple clang version 16.0.0 (clang-1600.0.26.6)
  configuration: --prefix=/opt/homebrew/Cellar/ffmpeg/7.1.1_2 --enable-shared --enable-pthreads --enable-version3 --cc=clang --host-cflags= --host-ldflags='-Wl,-ld_classic' --enable-ffplay --enable-gnutls --enable-gpl --enable-libaom --enable-libaribb24 --enable-libbluray --enable-libdav1d --enable-libharfbuzz --enable-libjxl --enable-libmp3lame --enable-libopus --enable-librav1e --enable-librist --enable-librubberband --enable-libsnappy --enable-libsrt --enable-libssh --enable-libsvtav1 --enable-libtesseract --enable-libtheora --enable-libvidstab --enable-libvmaf --enable-libvorbis --enable-libvpx --enable-libwebp --enable-libx264 --enable-libx265 --enable-libxml2 --enable-libxvid --enable-lzma --enable-libfontconfig --enable-libfreetype --enable-frei0r --enable-libass --enable-libopencore-amrnb --enable-libopencore-amrwb --enable-libopenjpeg --enable-libspeex --enable-libsoxr --enable-libzmq --enable-libzimg --disable-libjack --disable-indev=jack --enable-videotoolbox --enable-audiotoolbox --enable-neon
  libavutil      59. 39.100 / 59. 39.100
  libavcodec     61. 19.101 / 61. 19.101
  libavformat    61.  7.100 / 61.  7.100
  libavdevice    61.  3.100 / 61.  3.100
  libavfilter    10.  4.100 / 10.  4.100
  libswscale      8.  3.100 /  8.  3.100
  libswresample   5.  3.100 /  5.  3.100
  libpostproc    58.  3.100 / 58.  3.100
Input #0, mov,mp4,m4a,3gp,3g2,mj2, from './test_videos/youtube_20250422_003840.mp4':
  Metadata:
    major_brand     : mp42
    minor_version   : 0
    compatible_brands: isommp42
    creation_time   : 2021-08-31T10:42:56.000000Z
  Duration: 00:07:31.49, start: 0.000000, bitrate: 165 kb/s
  Stream #0:0[0x1](und): Video: h264 (Main) (avc1 / 0x31637661), yuv420p(tv, bt709, progressive), 640x360 [SAR 1:1 DAR 16:9], 33 kb/s, 29.97 fps, 29.97 tbr, 30k tbn (default)
      Metadata:
        creation_time   : 2021-08-31T10:42:56.000000Z
        handler_name    : ISO Media file produced by Google Inc. Created on: 08/31/2021.
        vendor_id       : [0][0][0][0]
  Stream #0:1[0x2](und): Audio: aac (LC) (mp4a / 0x6134706D), 44100 Hz, stereo, fltp, 128 kb/s (default)
      Metadata:
        creation_time   : 2021-08-31T10:42:56.000000Z
        handler_name    : ISO Media file produced by Google Inc. Created on: 08/31/2021.
        vendor_id       : [0][0][0][0]
Stream mapping:
  Stream #0:1 -> #0:0 (aac (native) -> pcm_s16le (native))
Press [q] to stop, [?] for help
Output #0, wav, to 'test_results_1sec/youtube_20250422_003840_20250422_110012/youtube_20250422_003840.mp4.wav':
  Metadata:
    major_brand     : mp42
    minor_version   : 0
    compatible_brands: isommp42
    ISFT            : Lavf61.7.100
  Stream #0:0(und): Audio: pcm_s16le ([1][0][0][0] / 0x0001), 16000 Hz, mono, s16, 256 kb/s (default)
      Metadata:
        creation_time   : 2021-08-31T10:42:56.000000Z
        handler_name    : ISO Media file produced by Google Inc. Created on: 08/31/2021.
        vendor_id       : [0][0][0][0]
        encoder         : Lavc61.19.101 pcm_s16le
size=    4864KiB time=00:02:36.99 bitrate= 253.8kbits/s speed= 312x    
size=    9984KiB time=00:05:25.99 bitrate= 250.9kbits/s speed= 323x    
[out#0/wav @ 0x10a6061a0] video:0KiB audio:14109KiB subtitle:0KiB other streams:0KiB global headers:0KiB muxing overhead: 0.000540%
size=   14109KiB time=00:07:31.48 bitrate= 256.0kbits/s speed= 336x    


RETURN CODE: 0
